<svg xmlns="http://www.w3.org/2000/svg" viewBox="0 0 24 24" fill="currentColor">
  <path fill-rule="evenodd" clip-rule="evenodd" d="
    M12 2.7
    C12.9 5.2 17.8 11.2 20.4 16.8
    C20.95 18.0 20.2 18.8 19.1 18.8
    L15.2 18.8
    C13.9 18.8 13.2 16.7 12 16.7
    C10.8 16.7 10.1 18.8 8.8 18.8
    L4.9 18.8
    C3.8 18.8 3.05 18.0 3.6 16.8
    C6.2 11.2 11.1 5.2 12 2.7
    Z
    M9.4 10.1 a2.6 2.6 0 1 1 5.2 0 a2.6 2.6 0 1 1 -5.2 0 Z" />
  <rect x="10.0" y="19.6" width="1.0" height="1.8" rx="0.5"/>
  <rect x="11.5" y="19.6" width="1.0" height="2.7" rx="0.5"/>
  <rect x="13.0" y="19.6" width="1.0" height="1.8" rx="0.5"/>
</svg>
